<?xml version="1.0" encoding="UTF-8" standalone="no"?>
<svg
   width="161.75299"
   height="153.79382"
   viewBox="0 0 161.75299 153.79382"
   fill="none"
   version="1.1"
   id="svg17"
   sodipodi:docname="kolibri.svg"
   inkscape:version="1.4.3 (1:1.4.3+202512261035+0d15f75042)"
   xmlns:inkscape="http://www.inkscape.org/namespaces/inkscape"
   xmlns:sodipodi="http://sodipodi.sourceforge.net/DTD/sodipodi-0.dtd"
   xmlns="http://www.w3.org/2000/svg"
   xmlns:svg="http://www.w3.org/2000/svg">
  <defs
     id="defs17" />
  <sodipodi:namedview
     id="namedview17"
     pagecolor="#ffffff"
     bordercolor="#000000"
     borderopacity="0.25"
     inkscape:showpageshadow="2"
     inkscape:pageopacity="0.0"
     inkscape:pagecheckerboard="0"
     inkscape:deskcolor="#d1d1d1"
     inkscape:zoom="1.7397414"
     inkscape:cx="17.243942"
     inkscape:cy="-19.830534"
     inkscape:window-width="1918"
     inkscape:window-height="1008"
     inkscape:window-x="0"
     inkscape:window-y="0"
     inkscape:window-maximized="1"
     inkscape:current-layer="svg17" />
  <path
     d="M 0.26078962,85.591197 C -1.0112104,101.591 2.2047896,118.999 13.56479,130.391 c 4.928,4.928 11.096,8.44 17.416,11.368 39.376,18.208 93.744,18.52 121.6,-18.48 15.448,-20.496 8.912,-51.999803 -1.52,-73.887803 -8.992,-18.872 -24.544,-34.776 -43.736,-43.0800101 -26.68,-11.576 -51.112,-6.90400296 -72.296,11.3600101 -19.728,17.024 -32.7040004,41.888 -34.76800038,67.92 z"
     fill="#ffcb00"
     id="path1" />
  <path
     fill-rule="evenodd"
     clip-rule="evenodd"
     d="m 107.99779,24.427397 c 0,0.5555 -0.218,1.0887 -0.609,1.484 l -12.312,12.304 c -5.488,5.424 -4.096,14.976 -0.608,23.2 l 0.041,0.0957 c 2.107,5.0018 4.275,10.147 3.591,18.0963 -0.591,6.7659 -3.678,13.2286 -6.693,19.5415 l -0.492,1.030103 c -0.891,1.862 -1.734,3.625 -2.503,5.388 2.256,2.744 6.352,8.144 7.504,12.608 1.032,4.032 -0.008,7.952 -2.704,10.232 -1.299,1.127 -2.96,1.752 -4.68,1.76 -0.948,-0.001 -1.885,-0.199 -2.752,-0.584 -2.008,-0.896 -5.408,-3.552 -5.672,-11.368 -0.088,-3.472 0.624,-7.2 2.312,-11.656 -0.936,-1.024 -1.864,-1.976 -2.736,-2.776 -4.539,-4.171503 -8.202,-9.205403 -10.776,-14.807603 -1.386,-2.8739 -2.284,-5.9589 -2.656,-9.128 -0.712,-8.144 1.656,-13.784 3.744,-18.752 0.248,-0.584 0.488,-1.168 0.728,-1.752 2.052,-5.0102 1.961,-7.638 1.878,-10.0267 -0.019,-0.5444 -0.037,-1.0764 -0.03,-1.6213 -0.003,-1.5359 0.356,-3.0508 1.049,-4.4213 0.693,-1.3704 1.701,-2.5576 2.94,-3.4647 1.24,-0.9071 2.676,-1.5084 4.192,-1.7548 1.516,-0.2465 3.068,-0.1311 4.531,0.3368 0.844,0.2627 1.744,0.2874 2.6,0.0714 0.857,-0.2159 1.638,-0.6642 2.256,-1.2954 l 1.752,-1.792 12.512,-12.432 c 0.396,-0.3953 0.933,-0.6172 1.492,-0.6172 0.56,0 1.096,0.2219 1.492,0.6172 0.391,0.3952 0.609,0.9284 0.609,1.484 z M 89.86879,124.439 c 0.92,-0.776 1.672,-2.496 1.032,-4.992 -0.52,-2.016 -2.224,-5.056 -4.608,-8.224 -0.7,2.201 -1.043,4.499 -1.016,6.808 0.144,4.224 1.44,6.288 2.6,6.8 0.335,0.13 0.7,0.161 1.053,0.092 0.352,-0.069 0.678,-0.237 0.939,-0.484 z m -3.241,-27.310603 c 2.851,-5.9344 5.802,-12.0753 6.313,-17.985 0.579,-6.623 -1.259,-10.9866 -3.183,-15.5534 l -0.057,-0.1346 c -0.304,-0.712 -0.6,-1.424 -0.896,-2.144 -2.067,-5.0828 -2.003,-8.1261 -1.931,-11.585 v -0.0019 c 0.013,-0.6509 0.027,-1.3165 0.027,-2.0131 0.001,-0.6703 -0.145,-1.3326 -0.428,-1.9403 -0.282,-0.6077 -0.695,-1.1459 -1.208,-1.5769 -0.514,-0.431 -1.115,-0.7441 -1.763,-0.9174 -0.647,-0.1732 -1.325,-0.2024 -1.985,-0.0854 -1.072,0.2091 -2.037,0.7866 -2.728,1.6326 -0.691,0.846 -1.065,1.907 -1.056,2.9994 -0.002,0.4719 0.008,0.9469 0.018,1.4348 v 0.0015 c 0.06,2.8779 0.13,6.2063 -2.25,12.0197 l -0.744,1.8 c -2.04,4.848 -3.96,9.432 -3.368,16.304 0.324,2.5861 1.076,5.1004 2.224,7.44 2.29,4.9808 5.554,9.4527 9.6,13.152 0.456,0.431603 0.928,0.887603 1.408,1.375603 0.526,-1.143 1.074,-2.280803 1.616,-3.409203 l 0.002,-0.0045 c 0.125,-0.2598 0.25,-0.5192 0.374,-0.7779 z"
     fill="#4368f5"
     id="path2" />
  <path
     d="m 57.58679,91.583497 c -0.34,0.0018 -0.676,-0.0638 -0.991,-0.1929 -0.314,-0.129 -0.6,-0.3191 -0.841,-0.5591 -1.924,-1.9214 -3.451,-4.2035 -4.493,-6.7156 -1.041,-2.5121 -1.577,-5.2049 -1.577,-7.9244 0,-2.7195 0.536,-5.4123 1.577,-7.9244 1.042,-2.512 2.569,-4.7941 4.493,-6.7156 0.488,-0.4848 1.149,-0.7559 1.837,-0.7536 0.688,0.0022 1.346,0.2776 1.831,0.7656 0.485,0.488 0.756,1.1486 0.754,1.8365 -0.002,0.6879 -0.278,1.3467 -0.766,1.8315 -1.44,1.4385 -2.583,3.147 -3.363,5.0276 -0.78,1.8806 -1.181,3.8965 -1.181,5.9324 0,2.0359 0.401,4.0519 1.181,5.9325 0.78,1.8806 1.923,3.589 3.363,5.0275 0.365,0.3616 0.614,0.8233 0.715,1.3265 0.102,0.5032 0.052,1.0253 -0.143,1.5 -0.196,0.4748 -0.528,0.8808 -0.954,1.1666 -0.427,0.2859 -0.928,0.4386 -1.442,0.4389 z"
     fill="#4368f5"
     id="path12" />
  <path
     d="m 48.24879,99.699797 c 0.316,0.1305 0.654,0.197 0.996,0.1957 0.338,-1e-4 0.673,-0.0673 0.984,-0.1978 0.312,-0.1305 0.595,-0.3216 0.832,-0.5622 0.241,-0.2401 0.433,-0.5256 0.564,-0.84 0.13,-0.3143 0.198,-0.6515 0.198,-0.992 0,-0.3405 -0.068,-0.6776 -0.198,-0.992 -0.131,-0.3144 -0.323,-0.5998 -0.564,-0.84 -2.533,-2.5305 -4.542,-5.5354 -5.913,-8.8429 -1.371,-3.3075 -2.076,-6.8527 -2.076,-10.4331 0,-3.5803 0.705,-7.1256 2.076,-10.4331 1.371,-3.3074 3.38,-6.3123 5.913,-8.8429 0.488,-0.4848 0.763,-1.1436 0.766,-1.8315 0.002,-0.6879 -0.269,-1.3485 -0.754,-1.8365 -0.485,-0.488 -1.144,-0.7634 -1.831,-0.7656 -0.688,-0.0023 -1.349,0.2688 -1.837,0.7536 -3.014,3.0132 -5.405,6.5908 -7.037,10.5282 -1.631,3.9375 -2.471,8.1578 -2.471,12.4198 0,4.2621 0.84,8.4824 2.471,12.4198 1.632,3.9375 4.023,7.515 7.037,10.5282 0.241,0.2421 0.528,0.4339 0.844,0.5643 z"
     fill="#4368f5"
     id="path13" />
  <path
     d="m 40.69079,108.455 c -0.343,-0.003 -0.683,-0.076 -0.998,-0.213 -0.314,-0.137 -0.598,-0.337 -0.834,-0.587 -4.139,-4.138 -7.422,-9.051803 -9.662,-14.459303 -2.24,-5.4075 -3.393,-11.2034 -3.393,-17.0565 0,-5.8532 1.153,-11.649 3.393,-17.0565 2.24,-5.4076 5.523,-10.3209 9.662,-14.4595 0.495,-0.446 1.142,-0.685 1.808,-0.6677 0.666,0.0173 1.3,0.2895 1.771,0.7606 0.471,0.4711 0.743,1.105 0.761,1.771 0.017,0.666 -0.222,1.3132 -0.668,1.8081 -3.66,3.6555 -6.563,7.9965 -8.544,12.7749 -1.981,4.7784 -3.001,9.9004 -3.001,15.0731 0,5.1727 1.02,10.2947 3.001,15.073 1.981,4.7784 4.884,9.119803 8.544,12.774803 0.363,0.363 0.609,0.826 0.709,1.329 0.1,0.503 0.048,1.025 -0.149,1.499 -0.197,0.473 -0.531,0.878 -0.958,1.162 -0.427,0.284 -0.929,0.435 -1.442,0.434 z"
     fill="#4368f5"
     id="path14" />
  <path
     d="m 104.16279,91.144597 c 0.427,0.2859 0.929,0.4386 1.442,0.4389 0.34,0.0018 0.677,-0.0638 0.991,-0.1929 0.315,-0.129 0.6,-0.3191 0.841,-0.5591 1.924,-1.9214 3.451,-4.2035 4.493,-6.7156 1.042,-2.5121 1.578,-5.2049 1.578,-7.9244 0,-2.7195 -0.536,-5.4123 -1.578,-7.9244 -1.042,-2.512 -2.569,-4.7941 -4.493,-6.7156 -0.242,-0.24 -0.528,-0.4301 -0.843,-0.5594 -0.315,-0.1294 -0.653,-0.1953 -0.993,-0.1942 -0.341,0.0011 -0.678,0.0693 -0.992,0.2007 -0.315,0.1313 -0.6,0.3233 -0.84,0.5649 -0.24,0.2417 -0.43,0.5282 -0.559,0.8433 -0.13,0.3151 -0.196,0.6526 -0.195,0.9932 10e-4,0.3406 0.07,0.6777 0.201,0.9919 0.131,0.3143 0.323,0.5996 0.565,0.8396 1.441,1.4385 2.584,3.147 3.363,5.0276 0.78,1.8806 1.182,3.8965 1.182,5.9324 0,2.0359 -0.402,4.0519 -1.182,5.9325 -0.779,1.8806 -1.922,3.589 -3.363,5.0275 -0.364,0.3616 -0.613,0.8233 -0.715,1.3265 -0.102,0.5032 -0.052,1.0253 0.144,1.5 0.195,0.4748 0.527,0.8808 0.953,1.1666 z"
     fill="#4368f5"
     id="path15" />
  <path
     d="m 113.91679,99.895497 c -0.341,0.002 -0.678,-0.0642 -0.993,-0.1947 -0.315,-0.1305 -0.6,-0.3227 -0.839,-0.5653 -0.241,-0.2401 -0.433,-0.5256 -0.564,-0.84 -0.13,-0.3143 -0.198,-0.6515 -0.198,-0.992 0,-0.3405 0.068,-0.6776 0.198,-0.992 0.131,-0.3144 0.323,-0.5998 0.564,-0.84 2.533,-2.5305 4.542,-5.5354 5.913,-8.8429 1.371,-3.3075 2.077,-6.8527 2.077,-10.4331 0,-3.5803 -0.706,-7.1256 -2.077,-10.4331 -1.371,-3.3074 -3.38,-6.3123 -5.913,-8.8429 -0.488,-0.4848 -0.763,-1.1436 -0.766,-1.8315 -0.002,-0.6879 0.269,-1.3485 0.754,-1.8365 0.485,-0.488 1.144,-0.7634 1.831,-0.7656 0.688,-0.0023 1.349,0.2688 1.837,0.7536 3.014,3.0132 5.405,6.5908 7.037,10.5282 1.631,3.9375 2.471,8.1578 2.471,12.4198 0,4.2621 -0.84,8.4824 -2.471,12.4198 -1.632,3.9375 -4.023,7.515 -7.037,10.5282 -0.483,0.485 -1.139,0.7584 -1.824,0.76 z"
     fill="#4368f5"
     id="path16" />
  <path
     d="m 121.05779,108.021 c 0.427,0.284 0.929,0.435 1.442,0.434 0.34,0.002 0.678,-0.064 0.993,-0.195 0.314,-0.13 0.6,-0.322 0.839,-0.565 4.139,-4.138 7.422,-9.051703 9.662,-14.459303 2.24,-5.4075 3.393,-11.2033 3.393,-17.0565 0,-5.8531 -1.153,-11.649 -3.393,-17.0565 -2.24,-5.4076 -5.523,-10.3209 -9.662,-14.4595 -0.495,-0.446 -1.142,-0.685 -1.808,-0.6677 -0.666,0.0173 -1.3,0.2896 -1.771,0.7607 -0.471,0.471 -0.744,1.105 -0.761,1.7709 -0.017,0.666 0.222,1.3132 0.668,1.8081 3.659,3.6555 6.563,7.9966 8.544,12.775 1.981,4.7783 3,9.9003 3,15.073 0,5.1727 -1.019,10.2947 -3,15.0731 -1.981,4.7784 -4.885,9.119703 -8.544,12.774703 -0.363,0.363 -0.61,0.826 -0.709,1.329 -0.1,0.503 -0.048,1.025 0.149,1.499 0.197,0.473 0.53,0.878 0.958,1.162 z"
     fill="#4368f5"
     id="path17" />
</svg>
